<?xml version="1.0" encoding="UTF-8" standalone="no"?>
<!DOCTYPE svg PUBLIC "-//W3C//DTD SVG 1.1//EN"
 "http://www.w3.org/Graphics/SVG/1.1/DTD/svg11.dtd">
<!-- Generated by graphviz version 2.40.1 (20161225.0304)
 -->
<!-- Title: models_diagram Pages: 1 -->
<svg width="294pt" height="472pt"
 viewBox="0.00 0.00 294.00 472.00" xmlns="http://www.w3.org/2000/svg" xmlns:xlink="http://www.w3.org/1999/xlink">
<g id="graph0" class="graph" transform="scale(1 1) rotate(0) translate(36 436)">
<title>models_diagram</title>
<polygon fill="#ffffff" stroke="transparent" points="-36,36 -36,-436 258,-436 258,36 -36,36"/>
<!-- SubTask -->
<g id="node1" class="node">
<title>SubTask</title>
<polygon fill="#add8e6" stroke="transparent" points="0,-378 0,-400 94,-400 94,-378 0,-378"/>
<polygon fill="none" stroke="#000000" points="0,-378 0,-400 94,-400 94,-378 0,-378"/>
<text text-anchor="start" x="29.502" y="-387" font-family="Times,serif" font-weight="bold" font-size="10.00" fill="#000000">SubTask</text>
<polygon fill="none" stroke="#000000" points="0,-356 0,-378 94,-378 94,-356 0,-356"/>
<text text-anchor="start" x="5" y="-365" font-family="Times,serif" text-decoration="underline" font-size="10.00" fill="#000000">seq</text>
<text text-anchor="start" x="18.328" y="-365" font-family="Times,serif" font-size="10.00" fill="#000000">: NUMBER</text>
<polygon fill="none" stroke="#000000" points="0,-334 0,-356 94,-356 94,-334 0,-334"/>
<text text-anchor="start" x="5" y="-342" font-family="Times,serif" font-size="10.00" fill="#000000">id: STRING</text>
<polygon fill="none" stroke="#000000" points="0,-312 0,-334 94,-334 94,-312 0,-312"/>
<text text-anchor="start" x="5" y="-320" font-family="Times,serif" font-size="10.00" fill="#000000">taskID: STRING</text>
<polygon fill="none" stroke="#000000" points="0,-290 0,-312 94,-312 94,-290 0,-290"/>
<text text-anchor="start" x="5" y="-298" font-family="Times,serif" font-size="10.00" fill="#000000">sub: JSON</text>
<polygon fill="none" stroke="#000000" points="0,-268 0,-290 94,-290 94,-268 0,-268"/>
<text text-anchor="start" x="4.652" y="-276" font-family="Times,serif" font-size="10.00" fill="#000000">recordStatus: ENUM</text>
<polygon fill="none" stroke="#000000" points="0,-246 0,-268 94,-268 94,-246 0,-246"/>
<text text-anchor="start" x="5" y="-254" font-family="Times,serif" font-size="10.00" fill="#000000">createdAt: DATE</text>
<polygon fill="none" stroke="#000000" points="0,-224 0,-246 94,-246 94,-224 0,-224"/>
<text text-anchor="start" x="5" y="-232" font-family="Times,serif" font-size="10.00" fill="#000000">updatedAt: DATE</text>
</g>
<!-- TaskUser -->
<g id="node2" class="node">
<title>TaskUser</title>
<polygon fill="#add8e6" stroke="transparent" points="128,-186 128,-208 222,-208 222,-186 128,-186"/>
<polygon fill="none" stroke="#000000" points="128,-186 128,-208 222,-208 222,-186 128,-186"/>
<text text-anchor="start" x="155.8435" y="-195" font-family="Times,serif" font-weight="bold" font-size="10.00" fill="#000000">TaskUser</text>
<polygon fill="none" stroke="#000000" points="128,-164 128,-186 222,-186 222,-164 128,-164"/>
<text text-anchor="start" x="133" y="-173" font-family="Times,serif" text-decoration="underline" font-size="10.00" fill="#000000">seq</text>
<text text-anchor="start" x="146.328" y="-173" font-family="Times,serif" font-size="10.00" fill="#000000">: NUMBER</text>
<polygon fill="none" stroke="#000000" points="128,-142 128,-164 222,-164 222,-142 128,-142"/>
<text text-anchor="start" x="133" y="-150" font-family="Times,serif" font-size="10.00" fill="#000000">id: STRING</text>
<polygon fill="none" stroke="#000000" points="128,-120 128,-142 222,-142 222,-120 128,-120"/>
<text text-anchor="start" x="133" y="-128" font-family="Times,serif" font-size="10.00" fill="#000000">taskID: STRING</text>
<polygon fill="none" stroke="#000000" points="128,-98 128,-120 222,-120 222,-98 128,-98"/>
<text text-anchor="start" x="133" y="-106" font-family="Times,serif" font-size="10.00" fill="#000000">users: JSON</text>
<polygon fill="none" stroke="#000000" points="128,-76 128,-98 222,-98 222,-76 128,-76"/>
<text text-anchor="start" x="132.652" y="-84" font-family="Times,serif" font-size="10.00" fill="#000000">recordStatus: ENUM</text>
<polygon fill="none" stroke="#000000" points="128,-54 128,-76 222,-76 222,-54 128,-54"/>
<text text-anchor="start" x="133" y="-62" font-family="Times,serif" font-size="10.00" fill="#000000">createdAt: DATE</text>
<polygon fill="none" stroke="#000000" points="128,-32 128,-54 222,-54 222,-32 128,-32"/>
<text text-anchor="start" x="133" y="-40" font-family="Times,serif" font-size="10.00" fill="#000000">updatedAt: DATE</text>
</g>
<!-- Tasks -->
<g id="node3" class="node">
<title>Tasks</title>
<polygon fill="#add8e6" stroke="transparent" points="0,-176 0,-198 94,-198 94,-176 0,-176"/>
<polygon fill="none" stroke="#000000" points="0,-176 0,-198 94,-198 94,-176 0,-176"/>
<text text-anchor="start" x="35.337" y="-185" font-family="Times,serif" font-weight="bold" font-size="10.00" fill="#000000">Tasks</text>
<polygon fill="none" stroke="#000000" points="0,-154 0,-176 94,-176 94,-154 0,-154"/>
<text text-anchor="start" x="5" y="-163" font-family="Times,serif" text-decoration="underline" font-size="10.00" fill="#000000">seq</text>
<text text-anchor="start" x="18.328" y="-163" font-family="Times,serif" font-size="10.00" fill="#000000">: NUMBER</text>
<polygon fill="none" stroke="#000000" points="0,-132 0,-154 94,-154 94,-132 0,-132"/>
<text text-anchor="start" x="5" y="-140" font-family="Times,serif" font-size="10.00" fill="#000000">id: STRING</text>
<polygon fill="none" stroke="#000000" points="0,-110 0,-132 94,-132 94,-110 0,-110"/>
<text text-anchor="start" x="5" y="-118" font-family="Times,serif" font-size="10.00" fill="#000000">proirity: JSON</text>
<polygon fill="none" stroke="#000000" points="0,-88 0,-110 94,-110 94,-88 0,-88"/>
<text text-anchor="start" x="5" y="-96" font-family="Times,serif" font-size="10.00" fill="#000000">duty: STRING</text>
<polygon fill="none" stroke="#000000" points="0,-66 0,-88 94,-88 94,-66 0,-66"/>
<text text-anchor="start" x="5" y="-74" font-family="Times,serif" font-size="10.00" fill="#000000">creator: STRING</text>
<polygon fill="none" stroke="#000000" points="0,-44 0,-66 94,-66 94,-44 0,-44"/>
<text text-anchor="start" x="4.652" y="-52" font-family="Times,serif" font-size="10.00" fill="#000000">recordStatus: ENUM</text>
<polygon fill="none" stroke="#000000" points="0,-22 0,-44 94,-44 94,-22 0,-22"/>
<text text-anchor="start" x="5" y="-30" font-family="Times,serif" font-size="10.00" fill="#000000">createdAt: DATE</text>
<polygon fill="none" stroke="#000000" points="0,0 0,-22 94,-22 94,0 0,0"/>
<text text-anchor="start" x="5" y="-8" font-family="Times,serif" font-size="10.00" fill="#000000">updatedAt: DATE</text>
</g>
</g>
</svg>
