<?xml version="1.0" encoding="UTF-8" standalone="no"?>
<!DOCTYPE svg PUBLIC "-//W3C//DTD SVG 1.1//EN"
 "http://www.w3.org/Graphics/SVG/1.1/DTD/svg11.dtd">
<!-- Generated by graphviz version 2.40.1 (20161225.0304)
 -->
<!-- Title: models_diagram Pages: 1 -->
<svg width="313pt" height="468pt"
 viewBox="0.00 0.00 313.00 468.00" xmlns="http://www.w3.org/2000/svg" xmlns:xlink="http://www.w3.org/1999/xlink">
<g id="graph0" class="graph" transform="scale(1 1) rotate(0) translate(36 432)">
<title>models_diagram</title>
<polygon fill="#ffffff" stroke="transparent" points="-36,36 -36,-432 277,-432 277,36 -36,36"/>
<!-- Tasks -->
<g id="node1" class="node">
<title>Tasks</title>
<polygon fill="#add8e6" stroke="transparent" points="0,-374 0,-396 112,-396 112,-374 0,-374"/>
<polygon fill="none" stroke="#000000" points="0,-374 0,-396 112,-396 112,-374 0,-374"/>
<text text-anchor="start" x="44.337" y="-383" font-family="Times,serif" font-weight="bold" font-size="10.00" fill="#000000">Tasks</text>
<polygon fill="none" stroke="#000000" points="0,-352 0,-374 112,-374 112,-352 0,-352"/>
<text text-anchor="start" x="5" y="-361" font-family="Times,serif" text-decoration="underline" font-size="10.00" fill="#000000">id</text>
<text text-anchor="start" x="12.779" y="-361" font-family="Times,serif" font-size="10.00" fill="#000000">: NUMBER</text>
<polygon fill="none" stroke="#000000" points="0,-330 0,-352 112,-352 112,-330 0,-330"/>
<text text-anchor="start" x="5" y="-338" font-family="Times,serif" font-size="10.00" fill="#000000">task_id: STRING</text>
<polygon fill="none" stroke="#000000" points="0,-308 0,-330 112,-330 112,-308 0,-308"/>
<text text-anchor="start" x="5" y="-316" font-family="Times,serif" font-size="10.00" fill="#000000">creator: NUMBER</text>
<polygon fill="none" stroke="#000000" points="0,-286 0,-308 112,-308 112,-286 0,-286"/>
<text text-anchor="start" x="5" y="-294" font-family="Times,serif" font-size="10.00" fill="#000000">subject: STRING</text>
<polygon fill="none" stroke="#000000" points="0,-264 0,-286 112,-286 112,-264 0,-264"/>
<text text-anchor="start" x="5" y="-272" font-family="Times,serif" font-size="10.00" fill="#000000">description: STRING</text>
<polygon fill="none" stroke="#000000" points="0,-242 0,-264 112,-264 112,-242 0,-242"/>
<text text-anchor="start" x="5" y="-250" font-family="Times,serif" font-size="10.00" fill="#000000">status: STRING</text>
<polygon fill="none" stroke="#000000" points="0,-220 0,-242 112,-242 112,-220 0,-220"/>
<text text-anchor="start" x="5" y="-228" font-family="Times,serif" font-size="10.00" fill="#000000">claimed: BOOLEAN</text>
<polygon fill="none" stroke="#000000" points="0,-198 0,-220 112,-220 112,-198 0,-198"/>
<text text-anchor="start" x="5" y="-206" font-family="Times,serif" font-size="10.00" fill="#000000">priority: STRING</text>
<polygon fill="none" stroke="#000000" points="0,-176 0,-198 112,-198 112,-176 0,-176"/>
<text text-anchor="start" x="5" y="-184" font-family="Times,serif" font-size="10.00" fill="#000000">created_date: STRING</text>
<polygon fill="none" stroke="#000000" points="0,-154 0,-176 112,-176 112,-154 0,-154"/>
<text text-anchor="start" x="5" y="-162" font-family="Times,serif" font-size="10.00" fill="#000000">created_time: STRING</text>
<polygon fill="none" stroke="#000000" points="0,-132 0,-154 112,-154 112,-132 0,-132"/>
<text text-anchor="start" x="5" y="-140" font-family="Times,serif" font-size="10.00" fill="#000000">due_date: STRING</text>
<polygon fill="none" stroke="#000000" points="0,-110 0,-132 112,-132 112,-110 0,-110"/>
<text text-anchor="start" x="5" y="-118" font-family="Times,serif" font-size="10.00" fill="#000000">due_time: STRING</text>
<polygon fill="none" stroke="#000000" points="0,-88 0,-110 112,-110 112,-88 0,-88"/>
<text text-anchor="start" x="4.7595" y="-96" font-family="Times,serif" font-size="10.00" fill="#000000">estimated_time: STRING</text>
<polygon fill="none" stroke="#000000" points="0,-66 0,-88 112,-88 112,-66 0,-66"/>
<text text-anchor="start" x="5" y="-74" font-family="Times,serif" font-size="10.00" fill="#000000">work_status: STRING</text>
<polygon fill="none" stroke="#000000" points="0,-44 0,-66 112,-66 112,-44 0,-44"/>
<text text-anchor="start" x="5" y="-52" font-family="Times,serif" font-size="10.00" fill="#000000">attachment: STRING</text>
<polygon fill="none" stroke="#000000" points="0,-22 0,-44 112,-44 112,-22 0,-22"/>
<text text-anchor="start" x="5" y="-30" font-family="Times,serif" font-size="10.00" fill="#000000">createdAt: DATE</text>
<polygon fill="none" stroke="#000000" points="0,0 0,-22 112,-22 112,0 0,0"/>
<text text-anchor="start" x="5" y="-8" font-family="Times,serif" font-size="10.00" fill="#000000">updatedAt: DATE</text>
</g>
<!-- Users -->
<g id="node2" class="node">
<title>Users</title>
<polygon fill="#add8e6" stroke="transparent" points="147,-280 147,-302 241,-302 241,-280 147,-280"/>
<polygon fill="none" stroke="#000000" points="147,-280 147,-302 241,-302 241,-280 147,-280"/>
<text text-anchor="start" x="182.6175" y="-289" font-family="Times,serif" font-weight="bold" font-size="10.00" fill="#000000">Users</text>
<polygon fill="none" stroke="#000000" points="147,-258 147,-280 241,-280 241,-258 147,-258"/>
<text text-anchor="start" x="152" y="-267" font-family="Times,serif" text-decoration="underline" font-size="10.00" fill="#000000">seq</text>
<text text-anchor="start" x="165.328" y="-267" font-family="Times,serif" font-size="10.00" fill="#000000">: NUMBER</text>
<polygon fill="none" stroke="#000000" points="147,-236 147,-258 241,-258 241,-236 147,-236"/>
<text text-anchor="start" x="152" y="-244" font-family="Times,serif" font-size="10.00" fill="#000000">id: STRING</text>
<polygon fill="none" stroke="#000000" points="147,-214 147,-236 241,-236 241,-214 147,-214"/>
<text text-anchor="start" x="152" y="-222" font-family="Times,serif" font-size="10.00" fill="#000000">userName: STRING</text>
<polygon fill="none" stroke="#000000" points="147,-192 147,-214 241,-214 241,-192 147,-192"/>
<text text-anchor="start" x="152" y="-200" font-family="Times,serif" font-size="10.00" fill="#000000">age: NUMBER</text>
<polygon fill="none" stroke="#000000" points="147,-170 147,-192 241,-192 241,-170 147,-170"/>
<text text-anchor="start" x="151.652" y="-178" font-family="Times,serif" font-size="10.00" fill="#000000">recordStatus: ENUM</text>
<polygon fill="none" stroke="#000000" points="147,-148 147,-170 241,-170 241,-148 147,-148"/>
<text text-anchor="start" x="152" y="-156" font-family="Times,serif" font-size="10.00" fill="#000000">createdAt: DATE</text>
<polygon fill="none" stroke="#000000" points="147,-126 147,-148 241,-148 241,-126 147,-126"/>
<text text-anchor="start" x="152" y="-134" font-family="Times,serif" font-size="10.00" fill="#000000">updatedAt: DATE</text>
</g>
</g>
</svg>
